<?xml version="1.0" encoding="UTF-8"?>
<svg width="600" height="400" viewBox="0 0 600 400" xmlns="http://www.w3.org/2000/svg">
  <!-- Calculator Body -->
  <rect x="100" y="50" width="400" height="300" rx="20" fill="#ffffff" stroke="#0056b3" stroke-width="4"/>
  
  <!-- Display -->
  <rect x="120" y="80" width="360" height="80" rx="10" fill="#f5f5f5" stroke="#0056b3" stroke-width="2"/>
  <text x="300" y="130" font-family="Arial" font-size="24" fill="#0056b3" text-anchor="middle">1,234.56</text>
  
  <!-- Buttons -->
  <g fill="#0056b3" stroke="#0056b3" stroke-width="2">
    <!-- Row 1 -->
    <rect x="120" y="180" width="80" height="60" rx="10" fill="white"/>
    <rect x="210" y="180" width="80" height="60" rx="10" fill="white"/>
    <rect x="300" y="180" width="80" height="60" rx="10" fill="white"/>
    <rect x="390" y="180" width="80" height="60" rx="10" fill="white"/>
    
    <!-- Row 2 -->
    <rect x="120" y="250" width="80" height="60" rx="10" fill="white"/>
    <rect x="210" y="250" width="80" height="60" rx="10" fill="white"/>
    <rect x="300" y="250" width="80" height="60" rx="10" fill="white"/>
    <rect x="390" y="250" width="80" height="60" rx="10" fill="white"/>
  </g>
  
  <!-- Button Labels -->
  <g font-family="Arial" font-size="20" fill="#0056b3" text-anchor="middle">
    <!-- Row 1 -->
    <text x="160" y="220">7</text>
    <text x="250" y="220">8</text>
    <text x="340" y="220">9</text>
    <text x="430" y="220">รท</text>
    
    <!-- Row 2 -->
    <text x="160" y="290">4</text>
    <text x="250" y="290">5</text>
    <text x="340" y="290">6</text>
    <text x="430" y="290">ร</text>
  </g>
  
  <!-- Decorative Elements -->
  <circle cx="500" cy="50" r="20" fill="#00a0dc" opacity="0.5"/>
  <circle cx="100" cy="350" r="15" fill="#00a0dc" opacity="0.5"/>
  <circle cx="550" cy="300" r="25" fill="#00a0dc" opacity="0.5"/>
</svg> 